<?xml version="1.0" standalone="no"?>
<!DOCTYPE svg PUBLIC "-//W3C//DTD SVG 20010904//EN"
 "http://www.w3.org/TR/2001/REC-SVG-20010904/DTD/svg10.dtd">
<svg version="1.0" xmlns="http://www.w3.org/2000/svg"
 width="700.000000pt" height="700.000000pt" viewBox="0 0 700.000000 700.000000"
 preserveAspectRatio="xMidYMid meet">
<metadata>
Created by potrace 1.11, written by Peter Selinger 2001-2013
</metadata>
<g transform="translate(0.000000,700.000000) scale(0.100000,-0.100000)"
fill="#000000" stroke="none">
<path d="M2235 5478 c-165 -5 -540 -7 -832 -6 l-533 4 0 -51 0 -52 117 -16
c226 -32 271 -86 293 -347 13 -155 13 -2620 0 -2867 -6 -106 -17 -227 -24
-270 -37 -208 -121 -305 -313 -363 l-73 -22 0 -52 0 -52 458 1 c251 0 507 -2
567 -4 l110 -4 3 56 3 56 -38 6 c-95 16 -237 56 -295 84 -140 66 -202 169
-236 391 -14 92 -16 293 -19 1620 l-3 1515 20 -45 c12 -25 380 -862 818 -1860
l798 -1815 48 0 49 0 696 1779 696 1779 3 -1519 c2 -1005 -1 -1552 -8 -1618
-15 -144 -51 -216 -131 -256 -40 -21 -158 -46 -261 -55 l-68 -7 0 -59 0 -59
28 7 c35 10 1969 10 2005 0 l27 -7 0 60 c0 41 -4 60 -12 60 -42 1 -171 22
-215 35 -64 19 -120 66 -144 120 -10 22 -23 78 -28 125 -15 116 -15 3203 0
3320 13 110 45 180 97 215 39 25 128 48 245 60 l57 6 0 60 c0 58 -1 60 -22 53
-13 -4 -358 -10 -767 -13 l-744 -6 -468 -1205 c-258 -663 -472 -1213 -476
-1223 -6 -13 -159 322 -557 1218 -302 679 -554 1234 -560 1233 -6 0 -146 -5
-311 -10z"/>
</g>
</svg>
